<?xml version="1.0" standalone="no"?>
<!DOCTYPE svg PUBLIC "-//W3C//DTD SVG 20010904//EN"
 "http://www.w3.org/TR/2001/REC-SVG-20010904/DTD/svg10.dtd">
<svg version="1.0" xmlns="http://www.w3.org/2000/svg"
 width="980.000000pt" height="980.000000pt" viewBox="0 0 980.000000 980.000000"
 preserveAspectRatio="xMidYMid meet">

<g transform="translate(0.000000,980.000000) scale(0.100000,-0.100000)"
fill="#000000" stroke="none">
<path d="M5330 9071 c-209 -202 -576 -409 -776 -436 l-49 -7 55 38 c147 100
256 208 304 301 24 48 20 49 -31 3 -70 -62 -187 -113 -383 -169 -96 -28 -202
-61 -235 -75 -69 -28 -152 -73 -160 -87 -15 -23 -22 -5 -14 35 23 122 107 219
257 295 24 12 42 24 40 27 -9 9 -124 -28 -180 -58 -121 -65 -236 -224 -272
-377 -17 -71 -25 -85 -52 -79 -14 2 -19 13 -21 38 -1 19 -2 41 -2 49 -1 16
-208 -293 -244 -365 -13 -27 -35 -77 -47 -111 -12 -35 -26 -63 -31 -63 -27 0
-30 153 -5 227 30 89 93 173 235 312 l136 133 -99 -6 c-265 -19 -473 -138
-591 -340 -36 -62 -71 -182 -80 -269 -7 -77 -7 -78 -27 -60 -11 9 -36 46 -55
82 l-36 64 -20 -39 c-15 -28 -22 -65 -25 -127 -4 -79 -6 -87 -19 -74 -9 8 -23
44 -33 78 l-17 64 -16 -31 c-9 -17 -21 -52 -28 -77 -15 -60 -33 -76 -59 -52
-35 32 -36 96 -3 225 l6 25 -27 -24 c-35 -33 -74 -115 -82 -173 -4 -26 -1 -69
6 -98 11 -46 11 -54 -3 -61 -29 -17 -40 -103 -33 -251 8 -159 8 -160 -84 -113
-39 20 -50 22 -50 11 0 -12 34 -110 66 -190 7 -17 5 -17 -25 -2 -30 16 -31 16
-31 -6 0 -19 16 -61 57 -157 5 -11 -3 -12 -38 -6 -24 3 -52 9 -61 11 -46 13
-7 -21 97 -86 63 -39 117 -74 119 -78 3 -5 -24 -6 -59 -4 -113 7 -143 -13 -84
-57 68 -50 86 -127 49 -208 -10 -24 -51 -87 -89 -141 -107 -150 -124 -201
-106 -313 7 -42 5 -47 -21 -68 -69 -53 -343 -228 -384 -245 -25 -10 -62 -25
-83 -34 -52 -21 -81 -59 -137 -177 -30 -64 -61 -114 -86 -138 -36 -34 -39 -42
-38 -86 1 -31 12 -69 29 -102 40 -80 41 -126 7 -259 -38 -143 -44 -186 -34
-230 l8 -34 22 38 c12 21 28 36 35 33 7 -2 16 -49 24 -135 12 -136 22 -169 82
-262 46 -71 46 -79 1 -134 -43 -52 -50 -72 -22 -61 9 3 29 9 45 12 38 8 36
-14 -12 -95 -65 -111 -63 -121 11 -67 67 50 117 79 124 72 2 -2 -1 -28 -6 -58
-13 -70 -37 -359 -30 -359 3 0 16 16 29 35 13 19 30 35 37 35 8 0 14 -2 14 -4
0 -17 22 -117 31 -138 14 -36 29 -27 29 18 0 51 15 41 43 -28 48 -124 44 -148
-48 -252 -30 -35 -55 -66 -55 -69 0 -12 77 26 163 80 48 31 90 54 92 51 6 -5
-103 -110 -246 -238 -124 -111 -178 -175 -220 -257 -29 -57 -34 -79 -37 -147
-1 -49 3 -101 12 -131 l14 -50 1 42 c2 105 44 215 119 309 33 42 129 128 216
194 11 8 -12 -25 -52 -74 -79 -98 -141 -210 -167 -300 -26 -90 -17 -213 21
-291 l29 -60 6 135 c7 145 12 167 53 249 30 59 41 63 26 10 -16 -56 -11 -218
10 -334 28 -151 27 -242 -3 -286 -26 -39 -80 -78 -119 -86 -48 -10 -30 -23 30
-23 43 0 73 8 121 30 35 17 65 29 68 27 2 -2 -14 -57 -34 -123 -33 -104 -37
-132 -38 -219 0 -73 4 -108 16 -129 l16 -29 7 60 c14 123 105 257 206 302 39
18 90 28 90 18 0 -2 -11 -32 -25 -66 -70 -171 -101 -390 -76 -523 25 -128 104
-243 202 -293 l34 -18 -28 37 c-76 99 -123 261 -112 381 11 119 63 243 127
302 l23 22 1 -108 c3 -186 46 -347 145 -541 75 -145 165 -266 299 -401 89 -89
284 -249 305 -249 3 0 -17 26 -45 58 -218 248 -350 521 -395 817 -16 106 -19
263 -6 330 6 36 8 33 14 -43 28 -316 163 -602 384 -813 183 -175 422 -292 682
-335 124 -20 383 -15 495 11 80 18 208 56 204 60 -2 2 -37 -1 -78 -5 -328 -38
-671 41 -853 198 -148 128 -204 264 -194 472 15 328 203 636 564 927 55 44
232 174 394 289 484 343 548 419 852 1021 97 191 195 375 217 408 23 33 71
105 107 160 207 315 295 445 300 445 3 0 2 -11 -1 -25 -4 -14 -4 -25 -1 -25 7
0 63 188 81 274 9 44 22 127 29 185 l13 106 2 -85 c1 -47 3 -105 4 -130 3 -90
-14 -376 -29 -479 -34 -232 -110 -466 -202 -626 -46 -80 -154 -228 -161 -221
-2 2 24 52 58 110 75 130 129 246 163 351 28 88 48 160 42 154 -2 -3 -46 -90
-99 -194 -96 -193 -212 -381 -310 -504 -74 -92 -136 -164 -136 -156 0 4 18 37
39 74 22 36 51 93 66 126 35 77 136 338 132 341 -1 2 -27 -38 -56 -87 -84
-142 -280 -434 -371 -554 -141 -186 -246 -302 -469 -520 -551 -538 -599 -591
-686 -768 -58 -118 -78 -199 -78 -313 -1 -347 322 -623 703 -601 91 5 252 45
264 66 3 5 -49 11 -117 14 -125 5 -202 23 -291 69 -54 28 -127 104 -156 163
-22 43 -25 63 -24 150 0 115 17 167 89 276 54 80 120 143 215 204 90 59 137
79 342 149 290 97 472 189 607 304 152 130 281 359 390 692 17 52 31 97 31 99
0 2 -25 -32 -56 -75 -100 -141 -234 -263 -399 -363 -38 -24 -178 -96 -310
-161 -132 -64 -276 -138 -320 -164 -81 -48 -224 -150 -237 -170 -16 -24 -7 27
17 89 64 170 151 258 505 507 131 92 280 221 301 260 7 14 -19 4 -100 -37 -61
-30 -111 -53 -111 -51 0 2 42 35 94 74 165 124 295 252 411 404 254 334 375
725 375 1216 0 80 2 143 4 141 2 -2 12 -76 21 -164 17 -163 23 -478 11 -640
l-6 -90 20 55 c30 80 60 239 68 354 l6 101 12 -110 c100 -909 -39 -1560 -417
-1959 -71 -75 -216 -196 -234 -196 -4 0 15 21 42 48 105 101 174 238 198 387
6 38 4 37 -34 -31 -55 -98 -174 -221 -285 -295 -89 -60 -262 -148 -481 -245
-93 -41 -120 -58 -176 -114 -112 -111 -165 -246 -156 -401 6 -109 40 -190 106
-252 72 -67 105 -81 54 -23 -96 109 -113 210 -56 327 56 112 205 242 366 318
111 52 114 51 61 -21 -153 -206 -188 -463 -88 -660 34 -67 125 -158 192 -192
58 -29 159 -56 212 -55 l35 0 -49 20 c-163 66 -286 218 -286 354 1 124 47 178
246 287 309 169 508 325 643 504 28 37 51 64 51 60 0 -3 -18 -79 -39 -169 -74
-309 -88 -468 -51 -611 21 -82 64 -171 107 -221 24 -29 25 -29 19 -5 -52 213
-4 401 170 657 162 240 247 334 499 558 83 73 168 152 191 176 126 135 215
327 244 528 20 133 8 371 -24 515 -31 134 -80 279 -126 376 -34 71 -34 69 10
-100 117 -460 82 -757 -126 -1050 -62 -89 -128 -163 -325 -371 -212 -223 -328
-364 -429 -522 -24 -37 -45 -65 -47 -64 -2 2 6 33 17 69 66 213 158 345 465
658 105 107 214 224 243 258 85 103 147 245 178 409 22 117 15 343 -15 456
-21 81 -69 208 -96 255 -16 26 -16 26 -10 2 4 -14 9 -68 12 -121 7 -117 -11
-187 -64 -249 -50 -58 -104 -83 -178 -84 -120 0 -218 78 -256 206 -22 70 -21
99 1 56 29 -55 95 -132 138 -159 57 -36 136 -41 173 -10 l24 20 -42 43 c-109
112 -126 294 -48 516 18 53 54 156 79 227 25 72 49 159 52 193 4 34 11 62 15
62 5 0 9 -5 9 -10 0 -21 103 -234 196 -407 226 -417 313 -621 361 -843 32
-147 36 -377 9 -513 -65 -338 -242 -577 -498 -677 -37 -15 -71 -30 -75 -35 -5
-4 40 -5 98 -2 193 10 343 80 481 225 161 169 261 393 289 652 12 114 29 143
123 220 106 86 146 162 162 306 12 112 -20 207 -116 349 -66 97 -81 152 -87
320 -4 104 1 186 16 320 32 267 50 452 53 525 l3 65 23 -72 c13 -40 26 -73 29
-73 7 0 -4 226 -18 364 -40 397 -155 689 -355 905 -36 39 -60 71 -52 71 27 0
124 -33 179 -60 65 -33 150 -103 197 -162 38 -48 43 -29 11 41 -27 60 -78 121
-138 166 -52 38 -212 119 -294 150 -26 10 -44 21 -40 26 4 4 45 21 89 39 84
33 154 81 154 105 0 11 -11 10 -54 -5 -97 -33 -198 -44 -279 -31 -71 12 -140
44 -168 77 -13 16 -11 17 29 10 66 -10 166 11 219 48 49 32 73 66 37 51 -105
-44 -177 -44 -261 -2 -65 34 -106 69 -153 132 -34 47 -90 146 -90 161 0 3 25
-17 56 -45 169 -154 421 -166 554 -26 l35 37 -53 -26 c-29 -15 -76 -31 -104
-36 -154 -30 -342 76 -530 296 -84 98 -108 119 -186 158 -78 40 -167 56 -356
66 -214 11 -269 26 -401 115 -216 144 -355 182 -632 172 -159 -5 -290 -27
-454 -75 -37 -11 -78 -23 -90 -27 -13 -4 0 10 29 29 56 39 194 167 152 142
-54 -32 -185 -77 -375 -130 -110 -30 -209 -58 -220 -62 -35 -13 -4 11 100 76
112 70 238 160 232 167 -3 2 -20 -5 -38 -16 -19 -11 -101 -47 -184 -80 -229
-93 -342 -153 -413 -217 -52 -47 -62 -52 -62 -34 0 11 9 39 21 61 l20 40 -21
-11 c-24 -13 -61 -62 -114 -153 -50 -85 -97 -133 -163 -164 -28 -13 -59 -33
-69 -44 -17 -19 -17 -20 4 -26 27 -7 28 -15 2 -31 -30 -18 -24 -29 18 -35 29
-3 55 4 119 34 45 21 95 42 110 45 l28 7 -36 -34 c-40 -38 -83 -102 -94 -138
-6 -20 2 -15 42 25 54 54 129 98 183 109 34 6 33 5 -15 -23 -75 -44 -146 -112
-197 -189 -47 -71 -102 -173 -93 -173 3 0 22 11 43 24 52 32 132 72 194 97
l53 20 -66 -68 c-80 -82 -99 -117 -98 -180 l0 -48 14 53 c12 43 40 102 50 102
1 0 1 -18 -1 -41 -4 -57 14 -156 37 -208 20 -45 79 -130 90 -131 4 0 -2 28
-13 63 -28 89 -22 201 16 280 33 69 121 166 217 239 38 29 69 56 69 60 0 10
-40 10 -120 -2 -35 -5 -66 -7 -68 -5 -9 8 143 122 250 187 65 40 116 73 114
75 -2 2 -55 -7 -117 -22 -63 -14 -125 -28 -139 -31 -24 -5 -25 -5 -5 11 42 34
375 193 480 228 229 77 416 101 570 73 169 -32 245 -82 346 -227 76 -110 129
-171 184 -212 l40 -30 -58 6 c-81 8 -132 41 -262 170 -60 60 -129 122 -151
138 -62 43 -140 70 -219 76 l-70 5 71 -35 c130 -64 225 -186 260 -333 19 -80
14 -271 -8 -339 -12 -38 -13 -35 -19 90 -12 234 -64 375 -178 478 -123 110
-304 107 -508 -9 l-68 -39 70 -5 70 -5 -55 -27 c-30 -15 -76 -33 -102 -40 -57
-14 -61 -25 -13 -34 19 -3 37 -10 40 -14 3 -4 -29 -22 -70 -40 -41 -18 -75
-37 -75 -41 0 -5 25 -9 55 -9 30 0 55 -4 55 -8 0 -5 -31 -23 -70 -41 -38 -17
-70 -36 -70 -42 0 -5 23 -9 50 -9 28 0 50 -4 50 -9 0 -10 -82 -36 -165 -51
-92 -17 -155 -40 -210 -75 -110 -70 -155 -142 -155 -248 0 -107 29 -159 169
-301 206 -211 302 -337 391 -512 48 -94 108 -260 97 -270 -3 -4 -28 10 -55 29
-54 40 -90 99 -127 208 -18 52 -41 92 -83 143 -32 39 -82 105 -112 146 -76
106 -139 180 -154 180 -6 0 -17 -5 -23 -11 -9 -9 -5 -19 18 -39 16 -16 29 -37
29 -48 0 -12 5 -24 10 -27 6 -3 10 -1 10 4 0 57 96 -128 129 -248 33 -121 45
-268 33 -398 -12 -114 -48 -276 -81 -361 -38 -96 -56 -202 -55 -327 2 -157 23
-235 112 -408 100 -195 144 -348 161 -559 8 -100 -1 -313 -14 -326 -3 -3 -5 4
-5 15 0 46 -41 149 -104 262 -84 151 -97 188 -101 286 -2 44 -4 87 -4 96 -1 9
-19 39 -42 65 -90 109 -119 201 -119 389 -1 154 -4 153 -76 -19 -25 -61 -57
-129 -71 -151 l-25 -40 6 50 c5 42 27 120 61 220 4 11 -2 7 -13 -10 -11 -16
-43 -88 -71 -160 -48 -123 -111 -238 -111 -204 0 8 15 69 33 135 38 134 49
184 41 184 -20 0 -152 -147 -237 -265 -117 -161 -209 -258 -285 -298 -29 -16
-55 -27 -57 -25 -6 5 67 110 145 212 94 122 142 235 139 324 -1 20 -5 13 -19
-28 -21 -63 -21 -61 -40 78 -15 113 -19 120 -41 91 l-19 -24 -1 45 c-1 55 -23
132 -32 110 -4 -8 -8 -37 -9 -65 l-3 -50 -13 56 c-18 78 -70 182 -127 254
l-48 60 6 -38 c3 -21 24 -77 46 -125 72 -156 76 -275 15 -380 -36 -61 -84 -82
-178 -75 -56 3 -78 1 -105 -14 -53 -28 -48 -38 23 -51 36 -7 84 -21 108 -32
l43 -20 -35 5 c-19 3 -69 8 -111 12 -67 5 -83 3 -123 -16 -43 -21 -60 -41 -35
-41 12 0 148 -67 167 -82 7 -6 11 -12 9 -14 -2 -2 -72 12 -156 32 -84 19 -155
33 -158 30 -6 -5 72 -56 87 -56 5 0 10 -4 10 -10 0 -13 -22 -12 -105 5 -38 8
-85 15 -104 15 -33 0 -33 0 -17 -25 22 -34 20 -42 -12 -49 -65 -15 -292 53
-421 126 -256 144 -380 328 -352 524 21 142 114 232 159 154 9 -16 25 -30 34
-30 19 0 224 148 275 199 34 34 66 115 61 155 l-3 25 -110 -52 c-125 -58 -173
-64 -243 -28 -65 33 -128 28 -231 -18 -148 -67 -200 -73 -270 -30 -33 20 -39
45 -20 80 7 14 19 19 37 17 22 -3 30 4 51 42 13 25 65 86 115 136 72 71 137
121 313 237 280 185 363 265 363 347 0 36 -16 22 -71 -62 l-54 -83 -8 103 c-7
95 -6 107 14 147 12 23 50 76 85 116 35 41 83 105 106 144 55 88 105 142 143
150 44 9 58 19 79 54 13 23 16 35 8 43 -8 8 -15 8 -25 -1 -21 -17 -42 -5 -85
52 -45 59 -123 180 -118 184 2 2 38 -13 82 -33 105 -48 152 -65 158 -55 3 5
-45 58 -106 119 -61 62 -109 114 -106 118 11 11 92 -33 129 -69 20 -19 48 -57
64 -83 40 -70 52 -82 79 -77 13 3 27 0 30 -6 4 -6 14 -11 22 -11 10 0 14 13
14 48 0 40 -7 60 -40 110 -36 57 -60 77 -60 52 0 -37 -82 36 -147 130 -37 54
-93 149 -93 157 0 3 12 -3 28 -13 15 -10 74 -47 132 -82 145 -88 210 -155 235
-242 l7 -25 -25 23 c-15 15 -27 20 -31 13 -10 -15 3 -72 20 -96 15 -20 15 -20
35 4 24 30 24 67 -1 114 -14 25 -16 37 -8 37 33 -1 105 -23 120 -37 57 -51
-24 -291 -125 -372 -16 -13 -17 -10 -12 45 l6 59 -24 -57 c-35 -81 -64 -129
-161 -258 -47 -63 -102 -144 -120 -180 -19 -36 -56 -85 -81 -110 -44 -42 -81
-97 -73 -106 9 -8 108 68 166 127 34 35 115 134 180 219 153 201 236 269 392
322 l55 19 -47 -4 c-44 -4 -48 -3 -48 18 0 43 60 143 119 197 52 48 148 104
209 123 23 7 23 6 8 -17 -8 -12 -22 -40 -31 -62 l-16 -39 48 28 c59 34 77 50
46 40 -32 -9 -29 8 7 49 18 20 57 45 95 61 36 16 64 30 62 32 -8 7 -113 -31
-151 -55 -25 -16 -53 -25 -71 -24 -20 2 -53 -11 -99 -38 -37 -22 -71 -40 -74
-40 -17 0 88 93 206 182 154 117 236 195 286 270 41 61 90 168 77 168 -4 0
-27 -14 -50 -31 -24 -17 -45 -29 -47 -27 -9 9 89 119 147 165 121 95 209 134
481 208 314 86 442 153 622 324 l69 66 -28 -50 c-30 -55 -105 -156 -183 -250
-28 -33 -49 -61 -48 -63 2 -1 45 13 96 33 193 74 375 121 540 140 68 8 58 -3
-34 -39 -64 -25 -181 -94 -173 -102 1 -2 32 5 67 16 123 36 287 50 375 31 24
-5 10 -10 -75 -29 -100 -23 -228 -69 -264 -95 -13 -10 3 -12 86 -13 173 -1
265 -34 464 -170 209 -142 300 -178 449 -177 50 0 117 5 149 12 188 36 373
-14 556 -150 44 -32 80 -56 80 -53 0 21 -57 117 -92 156 -77 85 -162 125 -441
207 -76 23 -155 48 -175 56 l-36 16 75 43 c41 24 85 56 99 71 l25 27 -50 -9
c-27 -4 -102 -8 -165 -8 -105 0 -120 2 -170 27 -31 15 -65 40 -76 55 l-21 28
96 0 c103 0 152 17 196 65 l20 22 -40 -9 c-22 -4 -78 -8 -125 -7 -95 0 -169
21 -310 86 -204 95 -341 134 -431 126 -71 -7 -47 9 42 28 126 27 243 2 424
-88 l100 -51 -36 44 c-46 55 -154 138 -226 173 -102 51 -203 69 -338 63 l-120
-5 50 44 c59 53 162 116 225 140 25 9 95 29 155 45 l110 29 -130 -4 c-118 -3
-140 -6 -237 -39 -105 -35 -215 -86 -318 -147 -29 -17 -55 -29 -58 -26 -3 3 5
34 17 69 11 35 21 68 21 74 0 5 -44 -34 -97 -87 -77 -76 -114 -105 -174 -134
-42 -21 -87 -36 -99 -34 -19 2 -9 13 61 69 117 92 238 222 277 297 42 78 38
98 -8 53z m-1091 -545 c-30 -42 -75 -106 -101 -143 -27 -36 -46 -68 -44 -70 1
-2 34 17 72 43 117 78 244 133 349 149 22 4 49 9 60 12 l20 6 -20 -23 c-25
-28 -146 -99 -295 -173 -135 -68 -232 -136 -280 -198 -19 -24 -28 -39 -20 -33
8 6 37 28 64 48 94 71 140 89 511 205 71 22 131 38 134 36 10 -10 -133 -136
-191 -169 -36 -20 -131 -61 -212 -91 -159 -60 -245 -100 -316 -148 -64 -44
-176 -152 -226 -221 -24 -32 -44 -52 -44 -45 1 8 11 68 24 134 14 66 23 122
21 123 -6 6 -48 -82 -114 -240 -74 -174 -91 -196 -91 -115 0 244 103 483 304
702 l46 50 -6 -40 -7 -40 49 45 c107 98 352 285 362 276 2 -3 -20 -39 -49 -80z
m-809 -126 c-29 -57 -57 -171 -65 -266 -6 -71 6 -239 21 -301 4 -13 2 -23 -2
-23 -13 0 -71 89 -105 157 l-28 58 0 -75 c0 -53 10 -113 33 -205 33 -128 34
-129 10 -100 -68 86 -114 226 -114 350 0 97 19 174 62 258 l33 62 6 -120 c4
-66 13 -138 20 -160 l13 -40 7 90 c11 142 41 240 102 332 29 43 33 34 7 -17z
m1370 -25 c-40 -83 -124 -149 -208 -162 -35 -6 -33 -3 55 65 50 40 109 92 130
117 44 53 54 44 23 -20z m-1751 -451 c63 -69 123 -169 163 -270 29 -76 31
-107 3 -67 -8 12 -36 45 -61 75 -61 71 -121 158 -143 210 -22 53 -33 108 -22
108 5 0 32 -25 60 -56z m3269 -308 c26 -13 115 -45 197 -71 222 -70 309 -118
367 -203 17 -25 27 -43 22 -41 -5 2 -37 19 -72 37 -35 18 -131 55 -212 82 -82
27 -166 58 -187 69 -54 27 -161 109 -174 132 -13 26 1 25 59 -5z m-3307 -91
c31 -20 169 -190 169 -209 0 -12 -75 25 -104 52 -15 15 -45 52 -66 82 -21 30
-47 64 -59 74 -48 43 -8 43 60 1z m2440 -122 c7 -23 13 -141 15 -298 2 -143 9
-290 15 -326 11 -64 7 -141 -10 -167 -4 -7 -15 -10 -25 -6 -19 7 -166 180
-166 194 0 5 8 11 18 14 27 9 68 56 81 95 16 50 14 57 -13 32 -68 -64 -187
-10 -174 81 2 18 14 27 58 40 48 16 120 71 107 84 -2 2 -22 -3 -45 -12 -71
-28 -76 -15 -29 69 23 40 60 110 82 155 45 94 67 105 86 45z m1508 -378 c118
-126 241 -236 340 -306 75 -52 81 -59 55 -59 -16 0 -49 5 -73 11 -24 5 -45 8
-47 6 -2 -2 23 -22 55 -45 162 -114 334 -284 434 -429 56 -82 121 -222 152
-327 14 -49 24 -91 22 -93 -3 -2 -23 22 -47 53 -103 136 -217 225 -512 397
-235 138 -414 257 -384 257 2 0 37 -18 78 -39 144 -78 430 -199 398 -168 -8 8
-72 60 -142 116 -311 250 -468 489 -503 766 l-6 50 47 -50 c26 -27 86 -90 133
-140z m-2187 12 c-12 -13 -22 -26 -22 -30 0 -11 74 -27 128 -27 28 0 52 -4 52
-9 0 -4 -33 -23 -72 -41 -69 -31 -72 -33 -48 -43 165 -66 275 -143 421 -294
322 -331 576 -853 596 -1223 6 -115 -3 -240 -18 -240 -5 0 -9 9 -9 19 0 50
-55 285 -95 407 -79 242 -205 444 -352 568 -42 35 -126 90 -186 122 -102 54
-232 154 -210 161 5 2 40 -10 77 -27 38 -17 70 -29 73 -27 6 7 -138 134 -220
193 -40 29 -108 73 -152 98 -44 25 -77 46 -74 46 3 0 71 -16 150 -36 217 -53
313 -91 414 -162 l50 -35 -30 33 c-88 95 -269 201 -525 305 -178 73 -302 133
-296 144 12 18 117 33 182 26 35 -4 64 -4 64 -2 0 3 -20 17 -44 31 -87 51 -72
66 68 66 l99 0 -21 -23z m1172 -237 c24 -25 69 -91 101 -145 95 -165 117 -198
169 -252 54 -58 53 -62 -2 -34 -76 39 -131 108 -236 295 -37 66 -83 142 -102
169 l-35 49 31 -19 c18 -10 51 -38 74 -63z m-1379 -129 c123 -59 193 -120 234
-203 31 -61 40 -129 25 -186 -6 -22 -8 -20 -32 20 -48 81 -110 153 -251 291
-160 158 -157 165 24 78z m2041 -309 c81 -101 128 -176 180 -287 213 -450 216
-1030 7 -1550 -25 -60 -51 -139 -59 -175 -21 -101 -16 -278 12 -385 11 -41
-35 29 -62 95 -22 52 -28 85 -31 170 -4 100 -2 110 30 200 19 52 59 149 89
215 30 66 65 149 76 185 123 374 19 815 -323 1380 -31 52 -59 100 -62 105 -2
6 26 -21 62 -60 65 -69 193 -239 242 -323 14 -24 27 -41 29 -39 16 16 -142
349 -229 484 -59 92 -40 84 39 -15z m-730 -127 c21 -61 28 -106 32 -190 2 -60
2 -108 -1 -105 -3 3 -13 53 -22 110 -13 89 -46 233 -70 305 -4 11 2 7 13 -10
12 -16 33 -66 48 -110z m308 -52 c239 -365 321 -739 215 -978 l-18 -40 0 60
c-1 71 -22 158 -52 218 -12 23 -58 98 -102 167 -44 69 -93 152 -108 185 -28
59 -63 175 -55 182 2 3 23 -32 47 -76 39 -74 140 -202 123 -156 -39 104 -78
231 -94 303 -21 97 -36 232 -26 232 4 0 35 -44 70 -97z m-1159 38 c357 -167
585 -486 620 -866 l6 -70 -72 135 c-147 276 -227 371 -399 475 -108 65 -176
126 -204 182 -27 54 -18 56 42 10 72 -56 123 -87 141 -87 8 0 -5 17 -30 37
-91 77 -155 143 -178 182 -12 23 -19 41 -16 41 4 0 44 -18 90 -39z m1302 -125
c99 -150 195 -373 234 -546 23 -104 25 -281 4 -359 -21 -81 -62 -154 -116
-207 -27 -27 -49 -46 -49 -42 0 3 11 30 24 59 37 86 57 176 63 290 12 219 -49
464 -198 792 -28 61 -53 119 -56 127 -8 24 43 -39 94 -114z m-1603 -308 c35
-90 68 -176 72 -193 6 -29 5 -29 -44 19 -57 55 -102 133 -126 216 -15 52 -47
246 -45 272 1 20 72 -136 143 -314z m2359 276 c84 -44 220 -146 298 -223 150
-151 275 -367 358 -620 23 -68 41 -130 41 -139 0 -8 -36 37 -80 102 -87 128
-156 219 -364 486 -132 169 -303 410 -291 410 3 0 20 -7 38 -16z m340 -60
c170 -86 312 -212 400 -358 27 -43 46 -80 44 -82 -2 -2 -23 20 -47 48 -121
146 -279 291 -415 381 -38 26 -66 47 -62 47 4 0 40 -16 80 -36z m-2323 -166
c243 -130 348 -248 358 -405 2 -35 2 -63 0 -63 -3 0 -19 22 -37 50 -38 58
-100 113 -230 201 -52 35 -117 86 -144 113 -45 45 -97 132 -97 163 0 17 31 5
150 -59z m1531 -71 c101 -218 96 -526 -10 -681 -18 -26 -35 -46 -37 -44 -2 2
5 32 16 65 57 185 47 441 -30 708 -11 38 -20 74 -20 80 0 17 50 -63 81 -128z
m406 -95 c67 -93 197 -225 347 -354 78 -67 142 -125 144 -130 6 -15 -148 57
-200 93 -47 34 -40 20 34 -63 212 -240 316 -441 346 -675 5 -35 6 -63 2 -63
-13 0 -69 89 -164 258 -107 193 -121 214 -217 322 -163 184 -267 348 -308 485
-23 77 -41 185 -32 185 3 0 25 -26 48 -58z m-1959 -111 c280 -147 453 -575
387 -954 -43 -249 -174 -443 -358 -532 -41 -19 -78 -35 -82 -35 -4 0 17 26 47
58 88 92 103 128 103 247 0 116 7 96 -160 440 -142 293 -183 384 -244 547 -73
194 -69 206 32 106 84 -83 130 -157 239 -378 51 -102 115 -228 144 -280 75
-134 114 -257 114 -356 1 -72 2 -77 14 -54 24 43 38 137 31 198 -4 31 -20 98
-36 147 -27 84 -51 132 -158 328 -24 43 -72 156 -106 250 -34 95 -70 189 -79
210 -9 20 -15 37 -12 37 10 0 101 -148 150 -245 30 -61 55 -105 55 -100 2 30
-63 245 -93 310 -19 41 -33 75 -30 75 3 0 21 -9 42 -19z m-429 -226 c28 -100
97 -238 239 -476 198 -332 237 -422 237 -550 0 -67 -4 -81 -30 -124 -43 -69
-55 -69 -55 -1 0 67 -30 161 -72 231 -17 28 -74 106 -126 174 -52 68 -110 149
-129 179 -18 31 -33 48 -33 39 0 -26 57 -175 86 -224 14 -24 24 -47 21 -49 -2
-3 -30 23 -62 58 -71 79 -139 214 -160 320 -28 143 -16 327 31 488 19 63 18
63 53 -65z m-2816 -182 c99 -101 140 -156 185 -251 35 -73 37 -82 37 -177 0
-85 -3 -107 -23 -145 -83 -158 -108 -142 -166 105 -14 61 -46 187 -70 280 -49
187 -63 265 -49 265 5 0 43 -35 86 -77z m5479 -289 c116 -165 198 -306 240
-414 23 -60 45 -140 39 -140 -10 0 -157 198 -211 285 -77 123 -230 449 -230
489 0 5 17 -15 38 -45 21 -30 77 -109 124 -175z m-2982 -463 c46 -160 83 -253
137 -339 54 -86 109 -204 123 -260 14 -61 8 -127 -16 -175 l-17 -32 -13 62
c-16 81 -50 142 -126 228 -62 72 -141 185 -134 192 2 3 23 -5 46 -17 23 -12
44 -19 47 -17 2 3 -9 29 -25 58 -38 68 -59 130 -72 216 -11 69 -4 222 10 206
4 -4 22 -59 40 -122z m-1955 75 c55 -14 213 -63 351 -110 138 -47 257 -86 264
-86 22 0 -21 40 -70 66 -56 29 -36 32 25 3 102 -48 191 -159 232 -287 31 -99
26 -122 -12 -52 -17 30 -34 55 -40 55 -6 0 -12 -42 -15 -95 -5 -98 -10 -98
-30 5 -7 33 -18 71 -25 85 -13 25 -13 25 -20 -15 -13 -70 -19 -71 -59 -16 -21
28 -47 56 -57 62 -16 8 -19 6 -19 -14 0 -13 9 -50 20 -82 11 -32 18 -60 16
-62 -2 -2 -14 12 -26 32 -36 57 -33 35 5 -49 19 -42 35 -79 35 -82 0 -14 -24
13 -62 69 -23 34 -43 56 -45 50 -2 -6 7 -40 21 -77 14 -36 21 -66 17 -66 -26
0 -121 147 -121 187 0 6 -4 15 -10 18 -6 4 -8 -6 -5 -25 3 -16 7 -45 10 -62
l5 -33 -25 28 c-25 28 -45 83 -45 127 -1 14 -8 39 -16 55 -8 17 -12 22 -9 12
5 -18 -43 -147 -55 -147 -3 0 -15 15 -25 33 l-20 32 -3 -32 c-2 -18 6 -49 18
-73 14 -28 18 -45 11 -53 -5 -7 -11 -28 -13 -47 -3 -33 -4 -34 -15 -13 -22 37
-43 135 -43 195 0 65 -12 80 -36 43 -9 -14 -22 -25 -30 -25 -14 0 -19 15 -29
95 l-7 50 -14 -34 c-33 -78 -9 -166 89 -329 78 -130 100 -172 89 -172 -12 0
-136 129 -171 179 l-31 44 0 -39 c1 -21 5 -59 10 -84 4 -25 7 -47 5 -49 -10
-9 -46 69 -55 119 -6 30 -14 73 -19 95 l-8 40 -16 -37 c-22 -48 -21 -78 3
-163 31 -110 24 -134 -11 -33 -12 37 -18 46 -18 28 -3 -60 -19 -45 -81 76 -58
111 -65 132 -65 182 0 31 4 68 8 82 7 23 6 22 -21 -7 -16 -18 -32 -33 -35 -33
-4 0 -7 15 -8 33 -1 17 -4 43 -8 55 -6 22 -8 20 -29 -23 -13 -26 -24 -46 -26
-44 -2 2 7 65 20 139 28 157 66 246 117 279 43 28 108 27 232 -3z m1800 -308
c27 -131 82 -248 167 -350 46 -56 37 -61 -24 -15 -98 74 -177 245 -185 403 -3
51 -2 114 3 140 l8 49 8 -75 c4 -41 15 -110 23 -152z m634 109 c69 -138 93
-324 67 -524 -26 -198 -99 -387 -188 -488 -39 -44 -125 -111 -133 -103 -2 2
17 33 42 68 98 139 170 328 194 507 22 169 -6 434 -67 638 -13 41 53 -35 85
-98z m-1654 36 c33 -14 89 -28 124 -31 l64 -5 -38 -19 c-64 -34 -158 -3 -255
82 l-35 31 40 -17 c22 -9 67 -28 100 -41z m3279 -398 c4 -34 3 -43 -3 -29 -24
53 -47 335 -35 417 7 43 10 19 20 -143 6 -107 15 -217 18 -245z m1486 53 c77
-114 102 -182 108 -286 4 -73 1 -88 -22 -135 -14 -29 -40 -67 -59 -85 l-34
-33 -6 129 c-11 204 -49 386 -113 530 -13 30 -24 57 -24 61 1 14 95 -99 150
-181z m-3972 34 c231 -578 147 -986 -243 -1178 -85 -41 -212 -83 -300 -98 -35
-6 -25 2 69 56 271 157 431 347 454 538 9 78 5 115 -28 235 -13 49 -24 125
-27 195 -6 129 5 392 17 385 4 -2 30 -62 58 -133z m219 -137 c56 -74 117 -201
132 -275 19 -97 20 -310 1 -310 -17 0 -108 199 -149 325 -32 100 -57 211 -75
343 l-3 23 24 -23 c14 -13 45 -50 70 -83z m-346 -350 c-6 -55 -19 -127 -30
-160 l-19 -60 -1 97 c-1 90 21 296 36 343 14 42 24 -120 14 -220z m2868 -180
c21 -163 41 -361 41 -404 0 -33 13 -17 35 44 10 28 22 54 26 59 12 13 11 -48
-2 -103 -5 -24 -8 -45 -6 -48 2 -2 16 1 31 6 14 6 26 7 26 3 0 -5 -71 -82
-157 -173 -87 -90 -166 -174 -177 -186 -32 -38 -38 -26 -12 25 31 61 81 203
105 300 33 128 51 278 58 465 3 97 7 176 9 174 2 -1 12 -75 23 -162z m-3153
48 c-48 -95 -151 -225 -313 -395 -299 -314 -390 -454 -428 -663 l-13 -70 -1
81 c-1 105 26 214 83 329 83 166 148 239 596 673 52 50 96 92 98 92 1 0 -9
-21 -22 -47z m-897 -106 c-14 -12 -91 -77 -171 -144 -80 -68 -183 -162 -229
-210 -79 -85 -82 -87 -76 -53 4 19 25 72 47 117 46 93 144 202 223 248 59 34
150 64 197 64 l35 0 -26 -22z m441 -63 c-25 -25 -74 -69 -110 -97 -74 -58
-142 -117 -136 -117 5 0 200 113 252 146 16 10 -14 -27 -66 -81 -112 -118
-180 -214 -250 -355 -54 -106 -119 -290 -140 -395 l-12 -59 -15 28 c-26 49
-27 123 -3 248 12 64 20 122 18 127 -2 6 -20 2 -45 -9 -54 -24 -93 -84 -130
-196 -15 -46 -30 -81 -35 -78 -14 9 -9 143 8 208 57 222 307 491 586 631 116
58 135 58 78 -1z m-538 -161 c-104 -104 -163 -171 -196 -225 -51 -82 -95 -195
-96 -240 0 -34 -15 -37 -24 -5 -32 121 51 306 208 462 88 87 191 154 239 155
11 0 -39 -57 -131 -147z m958 23 c-45 -107 -133 -206 -229 -259 -28 -16 -51
-27 -51 -25 0 2 44 48 98 104 54 55 120 128 146 162 27 34 50 62 52 62 2 0 -5
-20 -16 -44z m292 -448 c-278 -316 -427 -566 -508 -853 l-23 -80 0 65 c-2 235
157 574 374 799 83 86 222 191 252 191 7 0 -35 -55 -95 -122z"/>
<path d="M3263 6658 c-21 -42 -29 -183 -14 -253 14 -62 42 -95 65 -76 19 16
12 55 -25 143 -34 79 -37 139 -9 186 11 17 15 32 10 32 -5 0 -17 -15 -27 -32z"/>
<path d="M3350 6665 c-7 -8 -16 -45 -21 -82 -5 -38 -11 -80 -15 -94 -4 -19 2
-35 30 -68 45 -54 46 -87 5 -170 -29 -59 -36 -65 -98 -94 -66 -30 -66 -31 -33
-36 l33 -6 -30 -35 c-29 -33 -40 -57 -23 -46 27 16 112 44 112 36 0 -5 -15
-23 -32 -40 l-33 -32 41 25 c22 14 65 32 94 41 60 18 170 22 170 6 0 -5 -10
-10 -22 -10 -13 0 -30 -5 -38 -10 -23 -15 15 -13 80 4 61 16 222 90 175 80
-87 -18 -251 -44 -276 -44 -15 0 -31 5 -35 11 -12 20 24 42 82 50 42 6 79 21
150 64 109 66 152 76 221 50 46 -18 46 -18 65 5 38 47 27 55 -89 68 -60 6
-126 17 -148 23 l-40 12 54 11 54 11 -39 19 c-30 14 -72 20 -184 26 -147 6
-181 15 -200 50 -13 24 -13 105 0 149 11 40 8 48 -10 26z m275 -347 c19 -13
35 -28 35 -33 0 -33 -67 -85 -109 -85 -25 0 -51 36 -51 72 0 33 4 34 32 8 37
-35 76 -16 43 20 -17 18 -13 40 6 40 5 0 25 -10 44 -22z"/>
<path d="M3614 6650 c-125 -26 -245 -113 -207 -151 17 -17 57 6 97 55 49 61
84 77 161 78 77 0 151 -21 264 -75 113 -54 109 -52 86 -30 -102 96 -275 150
-401 123z"/>
<path d="M3970 6430 c51 -53 84 -80 99 -80 l22 0 -28 52 c-33 61 -93 108 -138
108 l-31 0 76 -80z"/>
<path d="M3085 6469 c-20 -18 -43 -45 -50 -60 -15 -28 -56 -191 -50 -197 6 -6
54 85 98 186 25 56 43 102 41 102 -2 0 -19 -14 -39 -31z"/>
<path d="M4032 6165 c-1 -22 -17 -89 -36 -149 -20 -60 -36 -117 -36 -126 0
-27 -12 -31 -33 -13 -20 17 -20 17 -12 -2 17 -43 16 -61 -4 -79 -17 -15 -23
-16 -36 -6 -13 11 -14 8 -9 -20 6 -30 5 -32 -15 -25 -22 7 -28 -4 -11 -21 7
-7 -5 -39 -38 -100 -27 -49 -48 -91 -46 -93 2 -2 24 4 48 13 89 34 210 194
261 345 45 132 42 229 -9 288 l-24 27 0 -39z"/>
<path d="M3043 6030 c-54 -54 -98 -133 -108 -195 l-6 -40 20 39 c11 21 37 58
58 83 21 25 46 56 56 68 23 31 49 95 39 95 -5 0 -31 -22 -59 -50z"/>
<path d="M4325 6041 c-6 -5 -28 -11 -50 -13 l-40 -3 56 -38 c55 -37 101 -97
64 -83 -14 5 -15 1 -10 -25 l7 -31 -26 17 c-21 14 -29 15 -42 5 -8 -7 -13 -19
-10 -27 6 -16 1 -16 -25 -3 -17 9 -19 7 -20 -17 -1 -15 0 -43 1 -61 2 -47 -21
-124 -37 -118 -7 3 -16 -2 -21 -11 -8 -13 -11 -12 -25 8 -20 27 -33 19 -17
-10 13 -26 6 -41 -21 -41 -14 0 -19 -7 -19 -25 0 -25 0 -25 -27 -8 l-26 17 7
-38 c5 -25 4 -36 -3 -32 -13 8 -25 -16 -40 -79 -7 -27 -26 -67 -42 -88 -36
-45 -33 -73 5 -56 13 6 27 20 29 30 8 29 37 24 37 -6 0 -14 5 -25 10 -25 11 0
13 15 10 74 -2 54 20 43 42 -20 l17 -49 1 69 c0 58 4 72 23 90 12 12 27 31 33
41 9 17 13 13 29 -30 26 -72 32 -73 39 -8 13 105 25 118 53 57 16 -33 18 -34
25 -13 5 13 12 66 15 118 6 90 7 94 19 66 19 -45 17 -147 -7 -237 -11 -44 -18
-82 -16 -84 6 -6 53 102 68 156 15 53 16 218 1 278 -14 61 3 52 28 -15 32 -90
34 -91 38 -53 6 52 -16 136 -45 170 -22 27 -23 31 -9 46 18 17 16 22 -27 77
-30 39 -37 43 -52 28z"/>
<path d="M3000 5590 c24 -36 78 -109 120 -163 95 -121 156 -235 175 -324 19
-89 19 -158 0 -176 -13 -13 -13 -16 2 -21 13 -5 15 -16 10 -55 -8 -63 6 -82
65 -88 40 -5 50 -2 72 20 23 23 26 35 26 91 0 69 -17 155 -49 247 -37 108 -92
178 -283 361 -171 163 -179 169 -138 108z"/>
<path d="M3744 5612 c-5 -21 -8 -23 -11 -9 -4 14 -8 16 -19 6 -10 -8 -14 -8
-14 0 0 6 -4 11 -10 11 -5 0 -10 -7 -10 -15 0 -20 -6 -19 -42 6 l-30 22 7 -34
c9 -44 29 -59 80 -59 34 0 43 5 58 29 19 32 22 57 8 65 -5 3 -12 -6 -17 -22z"/>
<path d="M6021 3555 c-36 -81 -128 -228 -196 -312 -138 -172 -320 -301 -525
-373 -82 -29 -94 -40 -39 -33 278 32 566 250 709 538 41 83 88 225 75 225 -2
0 -13 -20 -24 -45z"/>
</g>
</svg>
